<svg width="21" height="21" viewBox="0 0 21 21" fill="none" xmlns="http://www.w3.org/2000/svg">
<g clip-path="url(#clip0_2_421)">
<path d="M20.9947 21V20.9991H21V13.2973C21 9.52957 20.1889 6.6272 15.7841 6.6272C13.6666 6.6272 12.2456 7.7892 11.6655 8.89082H11.6042V6.97895H7.42786V20.9991H11.7766V14.0568C11.7766 12.2289 12.1231 10.4614 14.3867 10.4614C16.6171 10.4614 16.6504 12.5474 16.6504 14.1741V21H20.9947Z" fill="#F2F2F2"/>
<path d="M0.34668 6.98022H4.70068V21.0003H0.34668V6.98022Z" fill="#F2F2F2"/>
<path d="M2.52175 0C1.12963 0 0 1.12963 0 2.52175C0 3.91388 1.12963 5.06713 2.52175 5.06713C3.91388 5.06713 5.0435 3.91388 5.0435 2.52175C5.04263 1.12963 3.913 0 2.52175 0V0Z" fill="#F2F2F2"/>
</g>
<defs>
<clipPath id="clip0_2_421">
<rect width="21" height="21" fill="white"/>
</clipPath>
</defs>
</svg>
