<svg width="21" height="21" viewBox="0 0 21 21" fill="none" xmlns="http://www.w3.org/2000/svg">
<g clip-path="url(#clip0_2_425)">
<path d="M18.8422 6.22388C19.6962 5.6175 20.4146 4.86063 20.9999 3.98913V3.98825C20.2186 4.33038 19.3873 4.55787 18.5193 4.66813C19.4118 4.13525 20.0934 3.29787 20.4137 2.289C19.5816 2.78512 18.6628 3.13512 17.6837 3.33112C16.8936 2.48937 15.7674 1.96875 14.5389 1.96875C12.1554 1.96875 10.2366 3.90337 10.2366 6.27462C10.2366 6.61587 10.2654 6.944 10.3363 7.25638C6.75756 7.08138 3.59006 5.36637 1.46206 2.75275C1.09106 3.39762 0.872314 4.13525 0.872314 4.92887C0.872314 6.41988 1.63969 7.74113 2.78506 8.50675C2.09294 8.49363 1.41481 8.29238 0.839939 7.9765V8.02375C0.839939 10.1159 2.33181 11.8536 4.28919 12.2544C3.93831 12.3506 3.55681 12.3961 3.16044 12.3961C2.88481 12.3961 2.60656 12.3804 2.34581 12.3226C2.90319 14.0271 4.48694 15.281 6.36819 15.3221C4.90344 16.4675 3.04319 17.1579 1.02981 17.1579C0.677189 17.1579 0.338564 17.1421 -6.10352e-05 17.0992C1.90744 18.3286 4.16669 19.0312 6.60444 19.0312C14.2021 19.0312 19.1537 12.6927 18.8422 6.22388Z" fill="#F2F2F2"/>
</g>
<defs>
<clipPath id="clip0_2_425">
<rect width="21" height="21" fill="white"/>
</clipPath>
</defs>
</svg>
