<svg width="76" height="39" viewBox="0 0 76 39" fill="none" xmlns="http://www.w3.org/2000/svg">
<path d="M10.01 4.15233V0.764328H0.66V16.1643H4.18V10.5103H9.9V7.12233H4.18V4.15233H10.01Z" fill="#F2F2F2"/>
<path d="M13.6297 4.19633C14.7077 4.19633 15.6097 3.29433 15.6097 2.21633C15.6097 1.13833 14.7077 0.236328 13.6297 0.236328C12.5517 0.236328 11.6497 1.13833 11.6497 2.21633C11.6497 3.29433 12.5517 4.19633 13.6297 4.19633ZM11.9797 16.1643H15.2797V5.16433H11.9797V16.1643Z" fill="#F2F2F2"/>
<path d="M24.1405 4.85633C22.6885 4.85633 21.5885 5.38433 20.9945 6.19833V5.16433H17.6945V16.1643H20.9945V10.1583C20.9945 8.59633 21.8305 7.89233 23.0405 7.89233C24.0965 7.89233 24.9545 8.53033 24.9545 9.89433V16.1643H28.2545V9.41033C28.2545 6.44033 26.3625 4.85633 24.1405 4.85633Z" fill="#F2F2F2"/>
<path d="M40.9707 0.764328H29.5307V4.15233H33.4907V16.1643H37.0107V4.15233H40.9707V0.764328Z" fill="#F2F2F2"/>
<path d="M43.373 11.9843H51.183C51.271 11.5663 51.315 11.1263 51.315 10.6643C51.315 7.34233 48.939 4.85633 45.727 4.85633C42.251 4.85633 39.875 7.38633 39.875 10.6643C39.875 13.9423 42.207 16.4723 45.969 16.4723C48.059 16.4723 49.687 15.7023 50.765 14.2063L48.125 12.6883C47.685 13.1723 46.915 13.5243 46.013 13.5243C44.803 13.5243 43.791 13.1283 43.373 11.9843ZM43.307 9.52033C43.615 8.39833 44.451 7.78233 45.705 7.78233C46.695 7.78233 47.685 8.24433 48.037 9.52033H43.307Z" fill="#F2F2F2"/>
<path d="M58.3593 16.4723C60.5153 16.4723 62.3853 15.3503 63.3313 13.6343L60.4493 11.9843C60.0973 12.7543 59.2833 13.2163 58.3153 13.2163C56.8853 13.2163 55.8293 12.1823 55.8293 10.6643C55.8293 9.14633 56.8853 8.11233 58.3153 8.11233C59.2833 8.11233 60.0753 8.57433 60.4493 9.34433L63.3313 7.67233C62.3853 5.97833 60.4933 4.85633 58.3593 4.85633C55.0153 4.85633 52.5293 7.38633 52.5293 10.6643C52.5293 13.9423 55.0153 16.4723 58.3593 16.4723Z" fill="#F2F2F2"/>
<path d="M71.1054 4.85633C69.6534 4.85633 68.5534 5.38433 67.9594 6.19833V0.764328H64.6594V16.1643H67.9594V10.1583C67.9594 8.59633 68.7954 7.89233 70.0054 7.89233C71.0614 7.89233 71.9194 8.53033 71.9194 9.89433V16.1643H75.2194V9.41033C75.2194 6.44033 73.3274 4.85633 71.1054 4.85633Z" fill="#F2F2F2"/>
<path d="M15.906 29.5843H8.184V32.6643H12.298C11.748 34.1383 10.406 35.0403 8.36 35.0403C5.368 35.0403 3.52 33.1263 3.52 30.5083C3.52 27.8023 5.456 25.8883 8.052 25.8883C9.79 25.8883 11.176 26.6803 11.814 27.6923L14.806 25.9763C13.508 23.9083 11.022 22.4563 8.074 22.4563C3.542 22.4563 0 26.0203 0 30.4863C0 34.9083 3.476 38.4723 8.316 38.4723C12.628 38.4723 15.906 35.6123 15.906 30.9043V29.5843Z" fill="#FE7040"/>
<path d="M19.4305 26.1963C20.5085 26.1963 21.4105 25.2943 21.4105 24.2163C21.4105 23.1383 20.5085 22.2363 19.4305 22.2363C18.3525 22.2363 17.4505 23.1383 17.4505 24.2163C17.4505 25.2943 18.3525 26.1963 19.4305 26.1963ZM17.7805 38.1643H21.0805V27.1643H17.7805V38.1643Z" fill="#FE7040"/>
<path d="M26.7953 29.1223V27.1643H23.4953V38.1643H26.7953V33.1923C26.7953 31.0143 28.7313 30.4643 30.0953 30.6843V26.9443C28.7093 26.9443 27.2353 27.6483 26.7953 29.1223Z" fill="#FE7040"/>
<path d="M31.6379 38.1643H34.9379V22.1043H31.6379V38.1643Z" fill="#FE7040"/>
</svg>
